<mxfile host="app.diagrams.net" agent="Mozilla/5.0 (Macintosh; Intel Mac OS X 10_15_7) AppleWebKit/605.1.15 (KHTML, like Gecko) Version/18.2 Safari/605.1.15" version="27.1.1">
  <diagram name="Page-1" id="UnZ4QYp-BQ2CIMHnTbci">
    <mxGraphModel dx="1454" dy="2035" grid="1" gridSize="10" guides="1" tooltips="1" connect="1" arrows="1" fold="1" page="1" pageScale="1" pageWidth="827" pageHeight="1169" math="0" shadow="0">
      <root>
        <mxCell id="0" />
        <mxCell id="1" parent="0" />
        <mxCell id="FWM_22AcPOoMav8PUvN9-26" value="" style="whiteSpace=wrap;html=1;" vertex="1" parent="1">
          <mxGeometry x="120" width="520" height="770" as="geometry" />
        </mxCell>
        <mxCell id="FWM_22AcPOoMav8PUvN9-1" value="Użytkownik" style="shape=umlActor;verticalLabelPosition=bottom;verticalAlign=top;html=1;outlineConnect=0;" vertex="1" parent="1">
          <mxGeometry x="60" y="230" width="30" height="60" as="geometry" />
        </mxCell>
        <mxCell id="FWM_22AcPOoMav8PUvN9-2" value="Rejestracja konta" style="ellipse;whiteSpace=wrap;html=1;" vertex="1" parent="1">
          <mxGeometry x="130" y="20" width="120" height="50" as="geometry" />
        </mxCell>
        <mxCell id="FWM_22AcPOoMav8PUvN9-3" value="" style="endArrow=none;html=1;rounded=0;entryX=0.042;entryY=0.75;entryDx=0;entryDy=0;entryPerimeter=0;exitX=0.5;exitY=0;exitDx=0;exitDy=0;exitPerimeter=0;" edge="1" parent="1" source="FWM_22AcPOoMav8PUvN9-1" target="FWM_22AcPOoMav8PUvN9-2">
          <mxGeometry width="50" height="50" relative="1" as="geometry">
            <mxPoint x="100" y="210" as="sourcePoint" />
            <mxPoint x="150" y="160" as="targetPoint" />
          </mxGeometry>
        </mxCell>
        <mxCell id="FWM_22AcPOoMav8PUvN9-4" value="Logowanie" style="ellipse;whiteSpace=wrap;html=1;" vertex="1" parent="1">
          <mxGeometry x="358" y="10" width="120" height="50" as="geometry" />
        </mxCell>
        <mxCell id="FWM_22AcPOoMav8PUvN9-5" value="" style="endArrow=none;html=1;rounded=0;entryX=0;entryY=1;entryDx=0;entryDy=0;" edge="1" parent="1" target="FWM_22AcPOoMav8PUvN9-4">
          <mxGeometry width="50" height="50" relative="1" as="geometry">
            <mxPoint x="80" y="230" as="sourcePoint" />
            <mxPoint x="160" y="210" as="targetPoint" />
          </mxGeometry>
        </mxCell>
        <mxCell id="FWM_22AcPOoMav8PUvN9-6" value="Dodanie inwestycji" style="ellipse;whiteSpace=wrap;html=1;" vertex="1" parent="1">
          <mxGeometry x="284" y="235" width="120" height="50" as="geometry" />
        </mxCell>
        <mxCell id="FWM_22AcPOoMav8PUvN9-7" value="" style="endArrow=none;html=1;rounded=0;entryX=0;entryY=0.5;entryDx=0;entryDy=0;exitX=1;exitY=0.3333333333333333;exitDx=0;exitDy=0;exitPerimeter=0;" edge="1" parent="1" source="FWM_22AcPOoMav8PUvN9-1" target="FWM_22AcPOoMav8PUvN9-6">
          <mxGeometry width="50" height="50" relative="1" as="geometry">
            <mxPoint x="90" y="240" as="sourcePoint" />
            <mxPoint x="150" y="220" as="targetPoint" />
          </mxGeometry>
        </mxCell>
        <mxCell id="FWM_22AcPOoMav8PUvN9-8" value="Obliczenie raty&lt;span style=&quot;text-align: start; font-size: medium;&quot;&gt;&amp;nbsp;&lt;/span&gt;&lt;span style=&quot;text-align: start;&quot;&gt;&lt;font style=&quot;font-size: 12px;&quot;&gt;miesięcznej&lt;/font&gt;&lt;/span&gt;" style="ellipse;whiteSpace=wrap;html=1;" vertex="1" parent="1">
          <mxGeometry x="337" y="590" width="120" height="50" as="geometry" />
        </mxCell>
        <mxCell id="FWM_22AcPOoMav8PUvN9-9" value="" style="endArrow=none;html=1;rounded=0;entryX=0;entryY=0.5;entryDx=0;entryDy=0;" edge="1" parent="1" source="FWM_22AcPOoMav8PUvN9-23" target="FWM_22AcPOoMav8PUvN9-8">
          <mxGeometry width="50" height="50" relative="1" as="geometry">
            <mxPoint x="89" y="580" as="sourcePoint" />
            <mxPoint x="184" y="400" as="targetPoint" />
          </mxGeometry>
        </mxCell>
        <mxCell id="FWM_22AcPOoMav8PUvN9-10" value="Dokonanie wpłaty" style="ellipse;whiteSpace=wrap;html=1;" vertex="1" parent="1">
          <mxGeometry x="150" y="300" width="120" height="50" as="geometry" />
        </mxCell>
        <mxCell id="FWM_22AcPOoMav8PUvN9-11" value="" style="endArrow=none;html=1;rounded=0;entryX=0;entryY=0.5;entryDx=0;entryDy=0;" edge="1" parent="1" target="FWM_22AcPOoMav8PUvN9-10">
          <mxGeometry width="50" height="50" relative="1" as="geometry">
            <mxPoint x="100" y="280" as="sourcePoint" />
            <mxPoint x="160" y="340" as="targetPoint" />
          </mxGeometry>
        </mxCell>
        <mxCell id="FWM_22AcPOoMav8PUvN9-12" value="Powiadomienia o racie" style="ellipse;whiteSpace=wrap;html=1;" vertex="1" parent="1">
          <mxGeometry x="130" y="410" width="120" height="50" as="geometry" />
        </mxCell>
        <mxCell id="FWM_22AcPOoMav8PUvN9-13" value="" style="endArrow=none;html=1;rounded=0;entryX=0;entryY=0.5;entryDx=0;entryDy=0;" edge="1" parent="1" source="FWM_22AcPOoMav8PUvN9-1" target="FWM_22AcPOoMav8PUvN9-12">
          <mxGeometry width="50" height="50" relative="1" as="geometry">
            <mxPoint x="110" y="520" as="sourcePoint" />
            <mxPoint x="90" y="410" as="targetPoint" />
          </mxGeometry>
        </mxCell>
        <mxCell id="FWM_22AcPOoMav8PUvN9-19" value="Sprzedaż nieruchomości" style="ellipse;whiteSpace=wrap;html=1;" vertex="1" parent="1">
          <mxGeometry x="260" y="470" width="120" height="50" as="geometry" />
        </mxCell>
        <mxCell id="FWM_22AcPOoMav8PUvN9-20" value="" style="endArrow=none;html=1;rounded=0;exitX=0;exitY=0.5;exitDx=0;exitDy=0;" edge="1" parent="1" source="FWM_22AcPOoMav8PUvN9-19" target="FWM_22AcPOoMav8PUvN9-1">
          <mxGeometry width="50" height="50" relative="1" as="geometry">
            <mxPoint x="60" y="420" as="sourcePoint" />
            <mxPoint x="90" y="310" as="targetPoint" />
          </mxGeometry>
        </mxCell>
        <mxCell id="FWM_22AcPOoMav8PUvN9-22" value="&lt;span style=&quot;text-align: start;&quot;&gt;&lt;font style=&quot;font-size: 12px;&quot;&gt;Wyświetl Informacje o Koncie&lt;/font&gt;&lt;/span&gt;" style="ellipse;whiteSpace=wrap;html=1;" vertex="1" parent="1">
          <mxGeometry x="130" y="350" width="140" height="50" as="geometry" />
        </mxCell>
        <mxCell id="FWM_22AcPOoMav8PUvN9-23" value="&lt;span style=&quot;white-space: normal;&quot;&gt;System bankowy&lt;/span&gt;" style="shape=umlActor;verticalLabelPosition=bottom;verticalAlign=top;html=1;outlineConnect=0;" vertex="1" parent="1">
          <mxGeometry x="60" y="550" width="30" height="60" as="geometry" />
        </mxCell>
        <mxCell id="FWM_22AcPOoMav8PUvN9-25" value="&lt;span style=&quot;text-align: start;&quot; id=&quot;docs-internal-guid-02277009-7fff-ca53-ddca-e79993690190&quot;&gt;&lt;span style=&quot;font-size: 29pt; font-family: &amp;quot;Times New Roman&amp;quot;, serif; font-variant-ligatures: normal; font-variant-alternates: normal; font-variant-numeric: normal; font-variant-east-asian: normal; font-variant-position: normal; vertical-align: baseline; white-space: pre-wrap;&quot;&gt;RealEstateInwest&lt;/span&gt;&lt;/span&gt;" style="text;html=1;align=center;verticalAlign=middle;whiteSpace=wrap;rounded=0;" vertex="1" parent="1">
          <mxGeometry x="284" y="-40" width="60" height="30" as="geometry" />
        </mxCell>
        <mxCell id="FWM_22AcPOoMav8PUvN9-27" value="&lt;span style=&quot;font-style: normal; font-variant-caps: normal; font-weight: 400; letter-spacing: normal; text-align: start; text-indent: 0px; text-transform: none; white-space: normal; word-spacing: 0px; -webkit-text-stroke-width: 0px; text-decoration: none; caret-color: rgb(0, 0, 0); color: rgb(0, 0, 0); float: none; display: inline !important;&quot;&gt;&lt;font style=&quot;font-size: 12px;&quot;&gt;Połączenie konta bankowego&lt;/font&gt;&lt;/span&gt;" style="ellipse;whiteSpace=wrap;html=1;" vertex="1" parent="1">
          <mxGeometry x="140" y="80" width="120" height="50" as="geometry" />
        </mxCell>
        <mxCell id="FWM_22AcPOoMav8PUvN9-28" value="" style="endArrow=none;html=1;rounded=0;entryX=0;entryY=0.5;entryDx=0;entryDy=0;" edge="1" parent="1" source="FWM_22AcPOoMav8PUvN9-1" target="FWM_22AcPOoMav8PUvN9-27">
          <mxGeometry width="50" height="50" relative="1" as="geometry">
            <mxPoint x="100" y="240" as="sourcePoint" />
            <mxPoint x="170" y="210" as="targetPoint" />
          </mxGeometry>
        </mxCell>
        <mxCell id="FWM_22AcPOoMav8PUvN9-30" value="" style="endArrow=none;html=1;rounded=0;entryX=0;entryY=0.5;entryDx=0;entryDy=0;exitX=0.75;exitY=0.1;exitDx=0;exitDy=0;exitPerimeter=0;" edge="1" parent="1" source="FWM_22AcPOoMav8PUvN9-1" target="FWM_22AcPOoMav8PUvN9-29">
          <mxGeometry width="50" height="50" relative="1" as="geometry">
            <mxPoint x="100" y="230" as="sourcePoint" />
            <mxPoint x="200" y="310" as="targetPoint" />
          </mxGeometry>
        </mxCell>
        <mxCell id="FWM_22AcPOoMav8PUvN9-31" value="Dokonanie&amp;nbsp;&lt;span style=&quot;text-align: start;&quot;&gt;&lt;font style=&quot;font-size: 12px;&quot;&gt;nadpłaty&lt;/font&gt;&lt;/span&gt;&lt;span style=&quot;caret-color: rgba(0, 0, 0, 0); color: rgba(0, 0, 0, 0); font-family: monospace; font-size: 0px; text-align: start; white-space: nowrap;&quot;&gt;%3CmxGraphModel%3E%3Croot%3E%3CmxCell%20id%3D%220%22%2F%3E%3CmxCell%20id%3D%221%22%20parent%3D%220%22%2F%3E%3CmxCell%20id%3D%222%22%20value%3D%22Dokonanie%20wp%C5%82aty%22%20style%3D%22ellipse%3BwhiteSpace%3Dwrap%3Bhtml%3D1%3B%22%20vertex%3D%221%22%20parent%3D%221%22%3E%3CmxGeometry%20x%3D%22160%22%20y%3D%22300%22%20width%3D%22120%22%20height%3D%2250%22%20as%3D%22geometry%22%2F%3E%3C%2FmxCell%3E%3C%2Froot%3E%3C%2FmxGraphModel%3E&lt;/span&gt;&amp;nbsp;&lt;span style=&quot;caret-color: rgba(0, 0, 0, 0); color: rgba(0, 0, 0, 0); font-family: monospace; font-size: 0px; text-align: start; white-space: nowrap;&quot;&gt;%3CmxGraphModel%3E%3Croot%3E%3CmxCell%20id%3D%220%22%2F%3E%3CmxCell%20id%3D%221%22%20parent%3D%220%22%2F%3E%3CmxCell%20id%3D%222%22%20value%3D%22Dokonanie%20wp%C5%82aty%22%20style%3D%22ellipse%3BwhiteSpace%3Dwrap%3Bhtml%3D1%3B%22%20vertex%3D%221%22%20parent%3D%221%22%3E%3CmxGeometry%20x%3D%22160%22%20y%3D%22300%22%20width%3D%22120%22%20height%3D%2250%22%20as%3D%22geometry%22%2F%3E%3C%2FmxCell%3E%3C%2Froot%3E%3C%2FmxGraphModel%3E&lt;/span&gt;" style="ellipse;whiteSpace=wrap;html=1;" vertex="1" parent="1">
          <mxGeometry x="478" y="190" width="120" height="50" as="geometry" />
        </mxCell>
        <mxCell id="FWM_22AcPOoMav8PUvN9-32" value="" style="endArrow=none;html=1;rounded=0;entryX=0;entryY=0.5;entryDx=0;entryDy=0;" edge="1" parent="1" source="FWM_22AcPOoMav8PUvN9-1" target="FWM_22AcPOoMav8PUvN9-31">
          <mxGeometry width="50" height="50" relative="1" as="geometry">
            <mxPoint x="110" y="240" as="sourcePoint" />
            <mxPoint x="200" y="310" as="targetPoint" />
          </mxGeometry>
        </mxCell>
        <mxCell id="FWM_22AcPOoMav8PUvN9-33" value="&lt;span style=&quot;text-align: start;&quot;&gt;&lt;font style=&quot;font-size: 12px;&quot;&gt;Przegląd historię wpłat&lt;/font&gt;&lt;/span&gt;" style="ellipse;whiteSpace=wrap;html=1;" vertex="1" parent="1">
          <mxGeometry x="400" y="280" width="120" height="50" as="geometry" />
        </mxCell>
        <mxCell id="FWM_22AcPOoMav8PUvN9-34" value="" style="endArrow=none;html=1;rounded=0;entryX=0;entryY=0.5;entryDx=0;entryDy=0;" edge="1" parent="1" source="FWM_22AcPOoMav8PUvN9-1" target="FWM_22AcPOoMav8PUvN9-33">
          <mxGeometry width="50" height="50" relative="1" as="geometry">
            <mxPoint x="110" y="260" as="sourcePoint" />
            <mxPoint x="200" y="310" as="targetPoint" />
          </mxGeometry>
        </mxCell>
        <mxCell id="FWM_22AcPOoMav8PUvN9-36" value="&lt;span style=&quot;text-align: start;&quot;&gt;&lt;font style=&quot;font-size: 12px;&quot;&gt;Przegląd harmonogramu spłat&lt;/font&gt;&lt;/span&gt;" style="ellipse;whiteSpace=wrap;html=1;" vertex="1" parent="1">
          <mxGeometry x="510" y="365" width="120" height="50" as="geometry" />
        </mxCell>
        <mxCell id="FWM_22AcPOoMav8PUvN9-37" value="" style="endArrow=none;html=1;rounded=0;entryX=0;entryY=0.5;entryDx=0;entryDy=0;" edge="1" parent="1" source="FWM_22AcPOoMav8PUvN9-1" target="FWM_22AcPOoMav8PUvN9-36">
          <mxGeometry width="50" height="50" relative="1" as="geometry">
            <mxPoint x="100" y="300" as="sourcePoint" />
            <mxPoint x="200" y="310" as="targetPoint" />
          </mxGeometry>
        </mxCell>
        <mxCell id="FWM_22AcPOoMav8PUvN9-38" value="&lt;span style=&quot;text-align: start;&quot;&gt;&lt;font style=&quot;font-size: 12px;&quot;&gt;Zapisanie kwoty wpływu ze sprzedaży&lt;/font&gt;&lt;/span&gt;" style="ellipse;whiteSpace=wrap;html=1;" vertex="1" parent="1">
          <mxGeometry x="130" y="525" width="120" height="60" as="geometry" />
        </mxCell>
        <mxCell id="FWM_22AcPOoMav8PUvN9-39" value="" style="endArrow=none;html=1;rounded=0;entryX=0;entryY=0.5;entryDx=0;entryDy=0;" edge="1" parent="1" source="FWM_22AcPOoMav8PUvN9-1" target="FWM_22AcPOoMav8PUvN9-38">
          <mxGeometry width="50" height="50" relative="1" as="geometry">
            <mxPoint x="110" y="320" as="sourcePoint" />
            <mxPoint x="200" y="310" as="targetPoint" />
          </mxGeometry>
        </mxCell>
        <mxCell id="FWM_22AcPOoMav8PUvN9-43" value="&lt;span style=&quot;text-align: start;&quot;&gt;&lt;font style=&quot;font-size: 12px;&quot;&gt;Aktualizacja saldo bankowego po sprzedaży&lt;/font&gt;&lt;/span&gt;" style="ellipse;whiteSpace=wrap;html=1;" vertex="1" parent="1">
          <mxGeometry x="200" y="630" width="120" height="55" as="geometry" />
        </mxCell>
        <mxCell id="FWM_22AcPOoMav8PUvN9-44" value="" style="endArrow=none;html=1;rounded=0;exitX=0.05;exitY=0.4;exitDx=0;exitDy=0;entryX=0.5;entryY=0.5;entryDx=0;entryDy=0;entryPerimeter=0;exitPerimeter=0;" edge="1" parent="1" source="FWM_22AcPOoMav8PUvN9-43">
          <mxGeometry width="50" height="50" relative="1" as="geometry">
            <mxPoint x="274" y="582.5" as="sourcePoint" />
            <mxPoint x="89" y="580" as="targetPoint" />
          </mxGeometry>
        </mxCell>
        <mxCell id="FWM_22AcPOoMav8PUvN9-45" value="" style="endArrow=none;html=1;rounded=0;entryX=0;entryY=0.5;entryDx=0;entryDy=0;" edge="1" parent="1" source="FWM_22AcPOoMav8PUvN9-1" target="FWM_22AcPOoMav8PUvN9-22">
          <mxGeometry width="50" height="50" relative="1" as="geometry">
            <mxPoint x="89" y="580" as="sourcePoint" />
            <mxPoint x="204" y="440" as="targetPoint" />
          </mxGeometry>
        </mxCell>
        <mxCell id="FWM_22AcPOoMav8PUvN9-46" value="&lt;span style=&quot;text-align: start;&quot;&gt;&lt;font style=&quot;font-size: 12px;&quot;&gt;Pobrać raport PDF (historia spłat)&lt;/font&gt;&lt;/span&gt;" style="ellipse;whiteSpace=wrap;html=1;" vertex="1" parent="1">
          <mxGeometry x="390" y="60" width="120" height="50" as="geometry" />
        </mxCell>
        <mxCell id="FWM_22AcPOoMav8PUvN9-47" value="" style="endArrow=none;html=1;rounded=0;entryX=0.05;entryY=0.64;entryDx=0;entryDy=0;entryPerimeter=0;" edge="1" parent="1" target="FWM_22AcPOoMav8PUvN9-46">
          <mxGeometry width="50" height="50" relative="1" as="geometry">
            <mxPoint x="100" y="220" as="sourcePoint" />
            <mxPoint x="200" y="290" as="targetPoint" />
          </mxGeometry>
        </mxCell>
        <mxCell id="FWM_22AcPOoMav8PUvN9-48" value="&lt;span style=&quot;text-align: start;&quot;&gt;&lt;font style=&quot;font-size: 12px;&quot;&gt;Eksport danych do Excela&lt;/font&gt;&lt;/span&gt;" style="ellipse;whiteSpace=wrap;html=1;" vertex="1" parent="1">
          <mxGeometry x="414" y="480" width="120" height="50" as="geometry" />
        </mxCell>
        <mxCell id="FWM_22AcPOoMav8PUvN9-49" value="" style="endArrow=none;html=1;rounded=0;entryX=0;entryY=0.5;entryDx=0;entryDy=0;" edge="1" parent="1" source="FWM_22AcPOoMav8PUvN9-1" target="FWM_22AcPOoMav8PUvN9-48">
          <mxGeometry width="50" height="50" relative="1" as="geometry">
            <mxPoint x="150" y="510" as="sourcePoint" />
            <mxPoint x="200" y="460" as="targetPoint" />
          </mxGeometry>
        </mxCell>
        <mxCell id="FWM_22AcPOoMav8PUvN9-58" value="&amp;lt;&amp;lt;extend&amp;gt;&amp;gt;" style="html=1;verticalAlign=bottom;endArrow=open;dashed=1;endSize=8;curved=0;rounded=0;entryX=0.5;entryY=1;entryDx=0;entryDy=0;exitX=0.5;exitY=0;exitDx=0;exitDy=0;" edge="1" parent="1" source="FWM_22AcPOoMav8PUvN9-48" target="FWM_22AcPOoMav8PUvN9-33">
          <mxGeometry relative="1" as="geometry">
            <mxPoint x="520" y="580" as="sourcePoint" />
            <mxPoint x="440" y="580" as="targetPoint" />
          </mxGeometry>
        </mxCell>
        <mxCell id="FWM_22AcPOoMav8PUvN9-59" value="&amp;lt;&amp;lt;extend&amp;gt;&amp;gt;" style="html=1;verticalAlign=bottom;endArrow=open;dashed=1;endSize=8;curved=0;rounded=0;entryX=0.442;entryY=0.02;entryDx=0;entryDy=0;entryPerimeter=0;exitX=0.442;exitY=1;exitDx=0;exitDy=0;exitPerimeter=0;" edge="1" parent="1" source="FWM_22AcPOoMav8PUvN9-46" target="FWM_22AcPOoMav8PUvN9-33">
          <mxGeometry relative="1" as="geometry">
            <mxPoint x="520" y="245" as="sourcePoint" />
            <mxPoint x="520" y="165" as="targetPoint" />
          </mxGeometry>
        </mxCell>
        <mxCell id="FWM_22AcPOoMav8PUvN9-60" value="&amp;lt;&amp;lt;extend&amp;gt;&amp;gt;" style="html=1;verticalAlign=bottom;endArrow=open;dashed=1;endSize=8;curved=0;rounded=0;entryX=0.5;entryY=1;entryDx=0;entryDy=0;exitX=0.5;exitY=0;exitDx=0;exitDy=0;" edge="1" parent="1" source="FWM_22AcPOoMav8PUvN9-48" target="FWM_22AcPOoMav8PUvN9-6">
          <mxGeometry relative="1" as="geometry">
            <mxPoint x="440" y="460" as="sourcePoint" />
            <mxPoint x="440" y="380" as="targetPoint" />
          </mxGeometry>
        </mxCell>
        <mxCell id="FWM_22AcPOoMav8PUvN9-61" value="&amp;lt;&amp;lt;include&amp;gt;&amp;gt;" style="html=1;verticalAlign=bottom;endArrow=open;dashed=1;endSize=8;curved=0;rounded=0;exitX=0.575;exitY=0.94;exitDx=0;exitDy=0;exitPerimeter=0;" edge="1" parent="1" source="FWM_22AcPOoMav8PUvN9-2" target="FWM_22AcPOoMav8PUvN9-4">
          <mxGeometry relative="1" as="geometry">
            <mxPoint x="600" y="90" as="sourcePoint" />
            <mxPoint x="600" y="261" as="targetPoint" />
          </mxGeometry>
        </mxCell>
        <mxCell id="FWM_22AcPOoMav8PUvN9-65" value="&amp;lt;&amp;lt;include&amp;gt;&amp;gt;" style="html=1;verticalAlign=bottom;endArrow=open;dashed=1;endSize=8;curved=0;rounded=0;exitX=0.5;exitY=0;exitDx=0;exitDy=0;entryX=0.5;entryY=1;entryDx=0;entryDy=0;" edge="1" parent="1" source="FWM_22AcPOoMav8PUvN9-6" target="FWM_22AcPOoMav8PUvN9-29">
          <mxGeometry relative="1" as="geometry">
            <mxPoint x="206" y="80" as="sourcePoint" />
            <mxPoint x="200" y="123" as="targetPoint" />
          </mxGeometry>
        </mxCell>
        <mxCell id="FWM_22AcPOoMav8PUvN9-66" value="&amp;lt;&amp;lt;include&amp;gt;&amp;gt;" style="html=1;verticalAlign=bottom;endArrow=open;dashed=1;endSize=8;curved=0;rounded=0;entryX=0.5;entryY=0;entryDx=0;entryDy=0;" edge="1" parent="1" source="FWM_22AcPOoMav8PUvN9-6" target="FWM_22AcPOoMav8PUvN9-8">
          <mxGeometry relative="1" as="geometry">
            <mxPoint x="347" y="400" as="sourcePoint" />
            <mxPoint x="344" y="350" as="targetPoint" />
          </mxGeometry>
        </mxCell>
        <mxCell id="FWM_22AcPOoMav8PUvN9-68" value="&amp;lt;&amp;lt;include&amp;gt;&amp;gt;" style="html=1;verticalAlign=bottom;endArrow=open;dashed=1;endSize=8;curved=0;rounded=0;exitX=0.5;exitY=1;exitDx=0;exitDy=0;entryX=0.5;entryY=0;entryDx=0;entryDy=0;" edge="1" parent="1" source="FWM_22AcPOoMav8PUvN9-31" target="FWM_22AcPOoMav8PUvN9-36">
          <mxGeometry relative="1" as="geometry">
            <mxPoint x="343" y="260" as="sourcePoint" />
            <mxPoint x="340" y="210" as="targetPoint" />
          </mxGeometry>
        </mxCell>
        <mxCell id="FWM_22AcPOoMav8PUvN9-69" value="&amp;lt;&amp;lt;include&amp;gt;&amp;gt;" style="html=1;verticalAlign=bottom;endArrow=open;dashed=1;endSize=8;curved=0;rounded=0;exitX=0.558;exitY=0.96;exitDx=0;exitDy=0;exitPerimeter=0;" edge="1" parent="1" source="FWM_22AcPOoMav8PUvN9-19" target="FWM_22AcPOoMav8PUvN9-43">
          <mxGeometry relative="1" as="geometry">
            <mxPoint x="350" y="490" as="sourcePoint" />
            <mxPoint x="378" y="850" as="targetPoint" />
          </mxGeometry>
        </mxCell>
        <mxCell id="FWM_22AcPOoMav8PUvN9-71" value="&amp;lt;&amp;lt;include&amp;gt;&amp;gt;" style="html=1;verticalAlign=bottom;endArrow=open;dashed=1;endSize=8;curved=0;rounded=0;exitX=1;exitY=0.5;exitDx=0;exitDy=0;entryX=0;entryY=0.5;entryDx=0;entryDy=0;" edge="1" parent="1" source="FWM_22AcPOoMav8PUvN9-10" target="FWM_22AcPOoMav8PUvN9-33">
          <mxGeometry relative="1" as="geometry">
            <mxPoint x="343" y="270" as="sourcePoint" />
            <mxPoint x="340" y="220" as="targetPoint" />
          </mxGeometry>
        </mxCell>
        <mxCell id="FWM_22AcPOoMav8PUvN9-72" value="&amp;lt;&amp;lt;include&amp;gt;&amp;gt;" style="html=1;verticalAlign=bottom;endArrow=open;dashed=1;endSize=8;curved=0;rounded=0;exitX=0.5;exitY=1;exitDx=0;exitDy=0;entryX=0.5;entryY=0;entryDx=0;entryDy=0;" edge="1" parent="1" source="FWM_22AcPOoMav8PUvN9-31" target="FWM_22AcPOoMav8PUvN9-33">
          <mxGeometry relative="1" as="geometry">
            <mxPoint x="550" y="320" as="sourcePoint" />
            <mxPoint x="610" y="445" as="targetPoint" />
          </mxGeometry>
        </mxCell>
        <mxCell id="FWM_22AcPOoMav8PUvN9-73" value="&amp;lt;&amp;lt;include&amp;gt;&amp;gt;" style="html=1;verticalAlign=bottom;endArrow=open;dashed=1;endSize=8;curved=0;rounded=0;entryX=0.325;entryY=0.96;entryDx=0;entryDy=0;entryPerimeter=0;" edge="1" parent="1" source="FWM_22AcPOoMav8PUvN9-19" target="FWM_22AcPOoMav8PUvN9-33">
          <mxGeometry relative="1" as="geometry">
            <mxPoint x="310" y="330" as="sourcePoint" />
            <mxPoint x="420" y="310" as="targetPoint" />
          </mxGeometry>
        </mxCell>
        <mxCell id="FWM_22AcPOoMav8PUvN9-74" value="&amp;lt;&amp;lt;include&amp;gt;&amp;gt;" style="html=1;verticalAlign=bottom;endArrow=open;dashed=1;endSize=8;curved=0;rounded=0;exitX=1;exitY=0.5;exitDx=0;exitDy=0;" edge="1" parent="1" source="FWM_22AcPOoMav8PUvN9-27">
          <mxGeometry relative="1" as="geometry">
            <mxPoint x="202" y="90" as="sourcePoint" />
            <mxPoint x="360" y="50" as="targetPoint" />
          </mxGeometry>
        </mxCell>
        <mxCell id="FWM_22AcPOoMav8PUvN9-29" value="&lt;span style=&quot;text-align: start;&quot;&gt;&lt;font&gt;Określenie parametrów&amp;nbsp;inwestycji&lt;/font&gt;&lt;/span&gt;" style="ellipse;whiteSpace=wrap;html=1;" vertex="1" parent="1">
          <mxGeometry x="284" y="130" width="134" height="60" as="geometry" />
        </mxCell>
        <mxCell id="FWM_22AcPOoMav8PUvN9-76" value="" style="endArrow=none;html=1;rounded=0;entryX=0.383;entryY=0.94;entryDx=0;entryDy=0;entryPerimeter=0;" edge="1" parent="1" source="FWM_22AcPOoMav8PUvN9-23" target="FWM_22AcPOoMav8PUvN9-27">
          <mxGeometry width="50" height="50" relative="1" as="geometry">
            <mxPoint x="240" y="370" as="sourcePoint" />
            <mxPoint x="290" y="320" as="targetPoint" />
          </mxGeometry>
        </mxCell>
        <mxCell id="FWM_22AcPOoMav8PUvN9-77" value="&amp;lt;&amp;lt;include&amp;gt;&amp;gt;" style="html=1;verticalAlign=bottom;endArrow=open;dashed=1;endSize=8;curved=0;rounded=0;exitX=0.5;exitY=0;exitDx=0;exitDy=0;" edge="1" parent="1" source="FWM_22AcPOoMav8PUvN9-38" target="FWM_22AcPOoMav8PUvN9-19">
          <mxGeometry relative="1" as="geometry">
            <mxPoint x="306" y="580" as="sourcePoint" />
            <mxPoint x="270" y="772" as="targetPoint" />
          </mxGeometry>
        </mxCell>
        <mxCell id="FWM_22AcPOoMav8PUvN9-78" style="edgeStyle=orthogonalEdgeStyle;rounded=0;orthogonalLoop=1;jettySize=auto;html=1;exitX=0.5;exitY=1;exitDx=0;exitDy=0;" edge="1" parent="1" source="FWM_22AcPOoMav8PUvN9-26" target="FWM_22AcPOoMav8PUvN9-26">
          <mxGeometry relative="1" as="geometry" />
        </mxCell>
      </root>
    </mxGraphModel>
  </diagram>
</mxfile>
